<svg id="图层_1" xmlns="http://www.w3.org/2000/svg" width="1904.9" height="408.8" viewBox="0 0 1904.9 408.8"><style>.st0{opacity:0.6;} .st1{fill:#FFFFFF;stroke:#8998A1;stroke-width:0.7;stroke-linecap:round;stroke-linejoin:round;stroke-miterlimit:10;} .st2{fill:none;stroke:#8998A1;stroke-width:0.7;stroke-linecap:round;stroke-linejoin:round;stroke-miterlimit:10;} .st3{opacity:0.8;fill:none;stroke:#8998A1;stroke-width:0.7;stroke-linecap:round;stroke-linejoin:round;stroke-miterlimit:10;enable-background:new ;} .st4{opacity:0.8;fill:none;stroke:#8998A1;stroke-width:1.2;stroke-linecap:round;stroke-linejoin:round;stroke-miterlimit:10;enable-background:new ;} .st5{fill:#FFFFFF;stroke:#F09A83;stroke-width:0.8;stroke-linecap:round;stroke-linejoin:round;stroke-miterlimit:10;} .st6{opacity:0.8;} .st7{fill:none;stroke:#F09A83;stroke-width:0.8;stroke-linecap:round;stroke-linejoin:round;stroke-miterlimit:10;} .st8{fill:none;stroke:#8998A1;stroke-width:0.7;stroke-linecap:round;stroke-linejoin:round;} .st9{fill:none;stroke:#8998A1;stroke-width:0.7;stroke-linecap:round;stroke-linejoin:round;stroke-dasharray:3.3028,3.3028;}</style><g class="st0"><circle class="st1" cx="1815.2" cy="353.1" r="16.2"/><path class="st2" d="M1806.1 345.5l9.1 5.2-.7 52.3M1808.4 358.2l6.6 4.8M1815.1 357.5l7.8-4.4"/><circle class="st1" cx="982" cy="334.7" r="23.9"/><path class="st2" d="M968.5 323.5l13.5 7.7-1 77.3M971.9 342.3l9.9 7M981.9 341.1l11.6-6.4M1124.7 354.4l-10.7 1.8M1110.9 353l2.1-12.3"/><circle class="st1" cx="1127" cy="353.6" r="2.1"/><circle class="st1" cx="1110.6" cy="356.4" r="3.2"/><circle class="st1" cx="1113.3" cy="337.5" r="3.2"/><path class="st1" d="M1171.8 382.4H1060c-1.8 0-3.3-1.5-3.3-3.3v-7.3c0-1.8 1.5-3.3 3.3-3.3h111.8c1.8 0 3.3 1.5 3.3 3.3v7.3c0 1.8-1.5 3.3-3.3 3.3z"/><path class="st2" d="M1172.6 394.5h-113.3c-1.4 0-2.5-1.1-2.5-2.5v-64.7c0-1.4 1.1-2.5 2.5-2.5h113.3c1.4 0 2.5 1.1 2.5 2.5V392c0 1.4-1.1 2.5-2.5 2.5z"/><circle class="st1" cx="1071.1" cy="401.8" r="4.6"/><circle class="st1" cx="1162.9" cy="401.8" r="4.6"/><g><path class="st2" d="M1087.6 324.8V394M1144.3 324.8V394"/></g><path class="st1" d="M1063.7 340h17.5v21.9h-17.5z"/><path class="st2" d="M1067.8 353.6l7.9-7.5M1072.4 353.6l-4.2 4"/><path class="st3" d="M1295.1 67.4h18.4c1.5-6.8 7.6-11.8 14.8-11.8 1.6 0 3.1.2 4.6.7 3.1-11.2 13.4-19.4 25.6-19.4 14.7 0 26.6 11.9 26.6 26.6 0 1.3-.1 2.6-.3 3.9h18.5"/><path class="st4" d="M1758.4 223.8h24.8c2.1-9.1 10.2-15.9 20-15.9 2.1 0 4.2.3 6.1.9 4.2-15.1 18.1-26.2 34.6-26.2 19.8 0 35.9 16.1 35.9 35.9 0 1.8-.1 3.6-.4 5.3h24.9M1692.9 197.6h16.6c1.4-6.1 6.8-10.6 13.4-10.6 1.4 0 2.8.2 4.1.6 2.8-10.1 12.1-17.5 23.1-17.5 13.2 0 24 10.7 24 24 0 1.2-.1 2.4-.3 3.5h16.7"/><path class="st3" d="M605.3 44.1H579c-2.2-9.7-10.9-16.9-21.2-16.9-2.3 0-4.5.4-6.5 1C546.8 12.1 532.1.4 514.6.4c-21.1 0-38.2 17.1-38.2 38.2 0 1.9.1 3.8.4 5.6h-26.5M210.8 221.3h-12.7c-1.1-4.7-5.2-8.1-10.2-8.1-1.1 0-2.1.2-3.1.5-2.2-7.7-9.2-13.4-17.7-13.4-10.1 0-18.3 8.2-18.3 18.3 0 .9.1 1.8.2 2.7h-12.7M180.7 161.2h-30.6c-2.6-11.3-12.6-19.7-24.7-19.7-2.6 0-5.2.4-7.6 1.2-5.2-18.7-22.4-32.4-42.7-32.4-24.5 0-44.4 19.9-44.4 44.4 0 2.2.2 4.4.5 6.6H.3"/><g><path class="st2" d="M811.3 400.7h-90.7c-1.4 0-2.5-1.1-2.5-2.5v-61.4c0-1.4 1.1-2.5 2.5-2.5h88.2c1.4 0 2.5 1.1 2.5 2.5v63.9z"/><circle class="st1" cx="738.3" cy="400" r="6.4"/><circle class="st1" cx="793.7" cy="400" r="6.4"/><path class="st2" d="M822.8 359.9h23.1l-4.4-8.2c-1.2-1.4-2.9-2.2-4.8-2.2h-25.3v51.2h38.8c2.4 0 4.3-1.9 4.3-4.3v-19.6c0-.6-.1-1.2-.3-1.7h-31.3l-.1-15.2z"/><path class="st1" d="M845.9 359.9h-23.1v15.2h31.3c-.2-.5-.5-1-.9-1.5l-7.3-13.7z"/><path class="st2" d="M830.8 369l11.3-6.7M830.8 372.8l5.6-3.4M718.1 357h93.2v10.3h-93.2z"/><circle class="st1" cx="764.7" cy="362.1" r="14.9"/><path class="st2" d="M769.8 354.8l-5.1 5.2-5.1-5.2M758.1 360h13.2M764.7 360v11.1M758.1 365.2h13.2"/><circle class="st1" cx="833.2" cy="400" r="6.4"/></g><g><circle class="st1" cx="226.7" cy="330.2" r="22.7"/><path class="st2" d="M213.9 319.6l12.8 7.3-1 73.3M217.1 337.4l9.4 6.7M226.6 336.3l10.9-6.1"/><circle class="st1" cx="633.3" cy="346.4" r="16.9"/><path class="st2" d="M623.8 338.4l9.5 5.5-.7 54.8M626.2 351.8l7 4.9M633.2 350.9l8.3-4.5"/><circle class="st1" cx="156" cy="376.1" r="10.5"/><path class="st2" d="M150.1 371.2l5.9 3.4-.4 33.9M151.6 379.5l4.3 3M156 379l5.1-2.9"/><circle class="st5" cx="396.1" cy="68.1" r="4.4"/><circle class="st5" cx="361.4" cy="102.8" r="4.4"/><path class="st2" d="M364.5 99.7L393 71.2"/><circle class="st5" cx="361.4" cy="68.1" r="4.4"/><circle class="st5" cx="396.1" cy="102.8" r="4.4"/><path class="st2" d="M393 99.7l-28.5-28.5"/><circle class="st5" cx="354.2" cy="85.5" r="4.4"/><circle class="st5" cx="403.3" cy="85.5" r="4.4"/><path class="st2" d="M398.9 85.5h-40.3"/><circle class="st5" cx="378.7" cy="110" r="4.4"/><circle class="st5" cx="378.7" cy="61" r="4.4"/><path class="st2" d="M378.7 65.3v40.3"/><circle class="st1" cx="378.7" cy="85.5" r="6.7"/><circle class="st5" cx="378.7" cy="85.5" r="2.8"/><path class="st2" d="M290.9 393.8H465V221H290.9z"/><path class="st2" d="M351.4 340.2h53.1v3.7h-53.1z"/><path class="st1" d="M358.7 353.6h38.4v40.2h-38.4zM285.4 212.4h185.1v8.5H285.4z"/><path class="st2" d="M438.9 96.1h-27.5c-3 15.8-16.9 27.7-33.5 27.7s-30.5-11.9-33.5-27.7h-53.5v116.4h174v-76.7l-26-39.7z"/><path class="st1" d="M632.8 393.8v6.5h-15.4v-6.5H231.9v6.5h-14.5v-6.5h-19.5v12.9h485.4v-12.9z"/><path class="st2" d="M382.1 201.7h-42.5c-3 0-5.4-2.4-5.4-5.4v-8.2c0-3 2.4-5.4 5.4-5.4h42.5c3 0 5.4 2.4 5.4 5.4v8.2c-.1 3.1-2.5 5.4-5.4 5.4z"/><path class="st1" d="M389.7 212.4H332c-1 0-1.9-.8-1.9-1.9v-6.8c0-1 .8-1.9 1.9-1.9h57.7c1 0 1.9.8 1.9 1.9v6.8c0 1-.9 1.9-1.9 1.9zM335.6 201.7h-3.5c-1.1 0-2-.9-2-2v-8.6c0-1.1.9-2 2-2h3.5c1.1 0 2 .9 2 2v8.6c0 1.2-.9 2-2 2zM389.6 201.7h-3.5c-1.1 0-2-.9-2-2v-8.6c0-1.1.9-2 2-2h3.5c1.1 0 2 .9 2 2v8.6c0 1.2-.9 2-2 2z"/><circle class="st1" cx="360.2" cy="188.6" r="1.2"/><circle class="st1" cx="375.6" cy="188.6" r="1.2"/><circle class="st1" cx="360.2" cy="197" r="1.2"/><circle class="st1" cx="344.6" cy="197" r="1.2"/><circle class="st1" cx="375.6" cy="197" r="1.2"/><path class="st1" d="M399 211.6l-1.1.2c-1.6.3-3.1-.7-3.5-2.3l-2.4-11.4c-.3-1.6.7-3.1 2.3-3.5l1.1-.2c1.6-.3 3.1.7 3.5 2.3l2.4 11.4c.3 1.6-.7 3.2-2.3 3.5z"/><path class="st2" d="M425.6 161.4v48.5"/><path class="st1" d="M425.6 209c-3 0-5.8 1.3-7.6 3.4h15.3c-2-2.1-4.7-3.4-7.7-3.4z"/><path class="st5" d="M435.2 150.4c0-.3.1-.6.1-.9 0-3.2-2.6-5.7-5.7-5.7-2.2 0-4.1 1.3-5.1 3.1-.6-.4-1.4-.6-2.2-.6-2.4 0-4.3 1.8-4.5 4.1-.3-.1-.7-.1-1.1-.1-3.1 0-5.6 2.5-5.6 5.6s2.5 5.6 5.6 5.6h17.7c3.1 0 5.6-2.5 5.6-5.6 0-2.7-2.1-5.1-4.8-5.5z"/><path class="st2" d="M390.1 244.7c4.6-5.7 11.6-9.4 19.4-9.4 13.7 0 24.8 11.2 24.8 24.8v52"/><path class="st2" d="M392.3 245.9c-.2-.7-.9-1.2-1.8-1.2s-1.5.5-1.8 1.2c.6-.2 1.1-.2 1.8-.2s1.3.1 1.8.2z"/><path class="st1" d="M392.3 245.9c-.6-.2-1.1-.2-1.8-.2-.6 0-1.2.1-1.8.2-2.9.8-5 3.4-5 6.5 0 .9.2 1.8.5 2.5h12.5c.3-.8.5-1.6.5-2.5.1-3.1-2-5.7-4.9-6.5z"/><path class="st2" d="M345.1 312.9v-29.2h50.8v29.2"/><path class="st2" d="M345.1 283.7h50.8v6.8h-50.8z"/><circle class="st2" cx="357" cy="287" r=".9"/><circle class="st2" cx="383" cy="280.6" r="1.2"/><path class="st2" d="M369.4 286.4h2.3v4.1h-2.3z"/><path class="st1" d="M381.4 293.7h-21.9c-.5 0-.9-.4-.9-.9v-1.4c0-.5.4-.9.9-.9h21.9c.5 0 .9.4.9.9v1.4c0 .5-.4.9-.9.9z"/><path class="st2" d="M362.5 293.7h16v2.1h-16z"/><g><path class="st1" d="M381.4 312.8h1.1l-3.9-19.1h-1.9zM359.6 312.8h-1.1l3.9-19.1h1.9z"/></g><path class="st2" d="M370.5 295.9v-2.2"/><path class="st5" d="M353 258.4h35v19.1h-35z"/><path class="st5" d="M353 273.2h35v4.3h-35z"/><path class="st1" d="M377.2 286.7h-13.4c-1.1 0-1.9-.9-1.8-2l.6-7c.1-.9.9-1.7 1.8-1.7h12.3c1 0 1.7.7 1.8 1.7l.6 7c0 1.1-.8 2-1.9 2z"/><path class="st2" d="M426 309h15v3.9h-15zM578.1 393.8H465V231l113.1 29.6z"/><path class="st1" d="M602.1 266.7L465 231v-9.9l137.1 35.7zM285.4 312.9h185.1v8.5H285.4z"/><path class="st1" d="M465 231v27.9c0 4.9 4 9 9 9 4.9 0 9-4 9-9v-23.3l-18-4.6z"/><path class="st2" d="M482.9 235.7v28.5c0 4.9 4 9 9 9s9-4 9-9v-23.8l-18-4.7z"/><path class="st1" d="M500.8 240.3v27.6c0 4.9 4 9 9 9s9-4 9-9V245l-18-4.7z"/><path class="st2" d="M518.8 245V272.8c0 4.9 4 9 9 9 4.9 0 9-4 9-9v-23.2l-18-4.6z"/><path class="st1" d="M536.7 249.7v28.4c0 4.9 4 9 9 9s9-4 9-9v-23.7l-18-4.7z"/><path class="st2" d="M554.6 254.3v28c0 4.9 4 9 9 9s9-4 9-9V259l-18-4.7z"/><path class="st1" d="M572.6 282.4v3.6c0 4.9 4 9 9 9 4.9 0 9-4 9-9v-22.3l-17.9-4.7-.1 23.4zM465 221.1v0zM518.8 235.1v0z"/><path class="st2" d="M550.8 328.2h27.3v65.6h-37.9v-55c.1-5.9 4.8-10.6 10.6-10.6z"/></g><g><path class="st2" d="M1661.2 266.8l-47-23.5V123l47-3.4zM1661.2 393.5l-47-26.5V266.8h47z"/><path class="st3" d="M1674.2 118.7l-303.8 20v-16l303.8-20.1z"/><path class="st2" d="M1661.2 266.8h-269.8V137.2l269.8-17.6z"/><path class="st2" d="M1432 243.3l-40.6 23.5V137.2l40.6-2.9z"/><path class="st1" d="M1432 243.3h182.2l47 23.5h-269.8zM1424.7 371.6l-26 17.1V309l26-14.8z"/><path class="st2" d="M1432 367l-40.6 26.5V266.8h40.6z"/><path class="st2" d="M1432 367h182.2l47 26.5h-269.8z"/><ellipse class="st2" cx="1403.5" cy="345.2" rx="1.1" ry="3.8"/><circle class="st1" cx="1326.7" cy="330.4" r="22.5"/><path class="st2" d="M1314 319.8l12.7 7.3-.9 72.8M1317.2 337.6l9.3 6.6M1326.6 336.5l10.9-6.1"/><path class="st1" d="M1276.3 393.6h12.8v12.8h-12.8zM1332.4 393.6v6.4H1318v-6.4h-19.4v12.9h449.1v-12.9z"/><path class="st5" d="M1519.7 183h-6.7c-5.1 0-9.2-4-9.2-8.9 0-3.7 2.3-6.8 5.6-8.2.4-3.2 3.2-5.6 6.5-5.6 1.1 0 2.1.3 3 .7 2.1-3.6 6.1-6 10.7-6 6.6 0 12 5 12.3 11.4 3.9.8 6.9 4.2 6.9 8.3 0 4.6-3.9 8.5-8.7 8.5h-7.2"/><g class="st6"><path class="st5" d="M1518.4 173.6l7.9-7.9 8 7.9"/><path class="st7" d="M1526.3 166.1V183"/></g><path class="st1" d="M1543.2 363.8h52.3v8.2h-52.3zM1550.9 372h3.7v11.7h-3.7zM1584 372h3.7v11.7h-3.7z"/><g><path class="st1" d="M1451.9 363.8h52.3v8.2h-52.3zM1459.6 372h3.7v11.7h-3.7zM1492.7 372h3.7v11.7h-3.7z"/></g><g><path class="st1" d="M1459.5 249.8h3.1v5.4h-3.1zM1486.5 249.8h3.1v5.4h-3.1z"/><g><path class="st1" d="M1462.2 245.1c-1.6 0-2.8-1.3-2.8-2.8v-8.5c0-7.9 6.9-14.4 15.2-14.4 8.4 0 15.2 6.5 15.2 14.4v8.5c0 1.6-1.3 2.8-2.8 2.8h-24.8z"/><path class="st1" d="M1488.9 252h-28.7c-.8 0-1.5-.7-1.5-1.5v-10.8c0-.8.7-1.5 1.5-1.5h28.7c.8 0 1.5.7 1.5 1.5v10.8c0 .8-.6 1.5-1.5 1.5z"/><path class="st1" d="M1462.3 233.4h-5.2c-.9 0-1.7.8-1.7 1.7v15c0 .9.8 1.7 1.7 1.7h5.2c.9 0 1.7-.8 1.7-1.7v-15c0-1-.8-1.7-1.7-1.7zM1492 233.4h-5.2c-.9 0-1.7.8-1.7 1.7v15c0 .9.8 1.7 1.7 1.7h5.2c.9 0 1.7-.8 1.7-1.7v-15c0-1-.8-1.7-1.7-1.7z"/></g></g><g><path class="st1" d="M1556.7 249.8h3.1v5.4h-3.1zM1583.7 249.8h3.1v5.4h-3.1z"/><g><path class="st1" d="M1559.3 245.1c-1.6 0-2.8-1.3-2.8-2.8v-8.5c0-7.9 6.9-14.4 15.2-14.4 8.4 0 15.2 6.5 15.2 14.4v8.5c0 1.6-1.3 2.8-2.8 2.8h-24.8z"/><path class="st1" d="M1586.1 252h-28.7c-.8 0-1.5-.7-1.5-1.5v-10.8c0-.8.7-1.5 1.5-1.5h28.7c.8 0 1.5.7 1.5 1.5v10.8c0 .8-.7 1.5-1.5 1.5z"/><path class="st1" d="M1559.5 233.4h-5.2c-.9 0-1.7.8-1.7 1.7v15c0 .9.8 1.7 1.7 1.7h5.2c.9 0 1.7-.8 1.7-1.7v-15c-.1-1-.8-1.7-1.7-1.7zM1589.1 233.4h-5.2c-.9 0-1.7.8-1.7 1.7v15c0 .9.8 1.7 1.7 1.7h5.2c.9 0 1.7-.8 1.7-1.7v-15c0-1-.8-1.7-1.7-1.7z"/></g></g><g><path class="st8" d="M1526.3 128.8v1.5"/><path class="st9" d="M1526.3 133.6v18.2"/><path class="st8" d="M1526.3 153.4v1.5"/></g><g><path class="st5" d="M1460.5 320c7.4 0 11.5-.8 16.9-2.6 5 1.7 10.7 2.6 16.7 2.6l3.2 23.4s-7.2 9.6-19.9 13.9c-12.7-4.4-19.9-13.9-19.9-13.9l3-23.4z"/><path class="st7" d="M1477.4 317.4v4.3"/><path class="st5" d="M1459.7 324.3c7.8 0 12.1-.8 17.8-2.6 5.2 1.7 11.2 2.6 17.6 2.6"/><g><path class="st7" d="M1469.2 331.7h16.4M1477.4 346.2v-14.5"/></g></g><g><path class="st5" d="M1588 323c-.1-.1-.2-.1-.3-.2l-13.5-7.8-.4-.2c-1.7-.8-3.6-.8-5.3.1l-13.8 8-.3.2c-1.7 1-2.7 2.8-2.7 4.8v16c0 1.9 1 3.7 2.6 4.8l13.8 8c.1 0 .1.1.2.1h.1c.8.4 1.8.7 2.7.7.9 0 1.9-.2 2.7-.7l.1-.1s.1 0 .1-.1l13.5-7.8.5-.3c1.6-1 2.6-2.8 2.6-4.7v-16c0-2-1-3.8-2.6-4.8zM1579.4 325.6c-4.1 5.8-10.8 9.5-18.4 9.5"/><path class="st5" d="M1573.7 325.6h5.7v5.8"/><path class="st7" d="M1561.1 338v7.8M1570.2 337.2v8.6M1579.4 334.5v11.3"/></g></g></g></svg>