<?xml version="1.0" encoding="UTF-8" standalone="no"?>
<svg width="789px" height="880px" viewBox="0 0 789 880" version="1.1" xmlns="http://www.w3.org/2000/svg" xmlns:xlink="http://www.w3.org/1999/xlink" xmlns:sketch="http://www.bohemiancoding.com/sketch/ns">
    <!-- Generator: Sketch 3.3.3 (12072) - http://www.bohemiancoding.com/sketch -->
    <title>Untitled 2</title>
    <desc>Created with Sketch.</desc>
    <defs></defs>
    <g id="Page-1" stroke="none" stroke-width="1" fill="none" fill-rule="evenodd" sketch:type="MSPage">
        <g id="Imported-Layers" sketch:type="MSLayerGroup">
            <path d="M550.574,0.979 L752.921,0.979 L752.921,62.792 L550.574,62.792 L550.574,0.979 Z" id="Fill-1" fill="#D50F25" sketch:type="MSShapeGroup"></path>
            <path d="M550.574,0.979 L752.921,0.979 L752.921,43.637 L550.574,43.637 L550.574,0.979 Z" id="Fill-2" fill="#95091A" sketch:type="MSShapeGroup"></path>
            <path d="M514.7,43.637 L788.796,43.637 L788.796,848.512 L514.7,848.512 L514.7,43.637 Z" id="Fill-3" fill="#D50F25" sketch:type="MSShapeGroup"></path>
            <path d="M550.574,88.633 L752.921,88.633 L752.921,109.406 L550.574,109.406 L550.574,88.633 Z" id="Fill-4" fill="#95091A" sketch:type="MSShapeGroup"></path>
            <path d="M550.574,142.592 L752.921,142.592 L752.921,163.365 L550.574,163.365 L550.574,142.592 Z" id="Fill-5" fill="#95091A" sketch:type="MSShapeGroup"></path>
            <path d="M550.574,196.552 L752.921,196.552 L752.921,217.325 L550.574,217.325 L550.574,196.552 Z" id="Fill-6" fill="#95091A" sketch:type="MSShapeGroup"></path>
            <path d="M550.574,250.511 L752.921,250.511 L752.921,271.284 L550.574,271.284 L550.574,250.511 Z" id="Fill-7" fill="#95091A" sketch:type="MSShapeGroup"></path>
            <path d="M550.574,304.47 L752.921,304.47 L752.921,325.243 L550.574,325.243 L550.574,304.47 Z" id="Fill-8" fill="#95091A" sketch:type="MSShapeGroup"></path>
            <path d="M550.574,358.429 L752.921,358.429 L752.921,379.202 L550.574,379.202 L550.574,358.429 Z" id="Fill-9" fill="#95091A" sketch:type="MSShapeGroup"></path>
            <path d="M752.921,412.389 L551.513,412.389 L568.961,433.161 L752.921,433.161 L752.921,412.389" id="Fill-10" fill="#95091A" sketch:type="MSShapeGroup"></path>
            <path d="M571.448,466.348 L752.92,466.348 L752.92,487.121 L571.448,487.121 L571.448,466.348 Z" id="Fill-11" fill="#95091A" sketch:type="MSShapeGroup"></path>
            <path d="M571.448,520.307 L752.92,520.307 L752.92,541.08 L571.448,541.08 L571.448,520.307 Z" id="Fill-12" fill="#95091A" sketch:type="MSShapeGroup"></path>
            <path d="M571.448,574.267 L752.92,574.267 L752.92,595.04 L571.448,595.04 L571.448,574.267 Z" id="Fill-13" fill="#95091A" sketch:type="MSShapeGroup"></path>
            <path d="M571.448,628.226 L752.92,628.226 L752.92,648.999 L571.448,648.999 L571.448,628.226 Z" id="Fill-14" fill="#95091A" sketch:type="MSShapeGroup"></path>
            <path d="M571.448,682.185 L752.92,682.185 L752.92,702.958 L571.448,702.958 L571.448,682.185 Z" id="Fill-15" fill="#95091A" sketch:type="MSShapeGroup"></path>
            <path d="M571.448,736.145 L752.92,736.145 L752.92,756.918 L571.448,756.918 L571.448,736.145 Z" id="Fill-16" fill="#95091A" sketch:type="MSShapeGroup"></path>
            <path d="M571.448,780.126 L580.703,780.126 L580.703,848.513 L571.448,848.513 L571.448,780.126 Z" id="Fill-17" fill="#95091A" sketch:type="MSShapeGroup"></path>
            <path d="M593.629,780.126 L623.758,780.126 L623.758,848.513 L593.629,848.513 L593.629,780.126 Z" id="Fill-18" fill="#95091A" sketch:type="MSShapeGroup"></path>
            <path d="M636.683,780.126 L666.812,780.126 L666.812,848.513 L636.683,848.513 L636.683,780.126 Z" id="Fill-19" fill="#95091A" sketch:type="MSShapeGroup"></path>
            <path d="M679.737,780.126 L709.866,780.126 L709.866,848.513 L679.737,848.513 L679.737,780.126 Z" id="Fill-20" fill="#95091A" sketch:type="MSShapeGroup"></path>
            <path d="M722.791,780.126 L752.92,780.126 L752.92,848.513 L722.791,848.513 L722.791,780.126 Z" id="Fill-21" fill="#95091A" sketch:type="MSShapeGroup"></path>
            <path d="M476.725,323.35 L382.002,436.123 L382.002,866.729 L571.448,866.729 L571.448,436.123 L476.725,323.35" id="Fill-22" fill="#B2B2B2" sketch:type="MSShapeGroup"></path>
            <path d="M476.725,323.35 L382.002,436.123 L382.002,866.729 L571.448,866.729 L571.448,436.123 L476.725,323.35" id="Fill-23" fill="#3369E8" sketch:type="MSShapeGroup"></path>
            <path d="M476.725,367.296 L418.115,437.073 L418.115,861.49 L535.334,861.49 L535.334,437.073 L476.725,367.296" id="Fill-24" fill="#3369E8" sketch:type="MSShapeGroup"></path>
            <path d="M535.334,452.987 L535.334,861.49 L418.115,861.49 L418.115,866.729 L535.334,866.729 L535.334,452.987" id="Fill-25" fill="#517FEC" sketch:type="MSShapeGroup"></path>
            <path d="M428.349,787.421 L449.21,787.421 L449.21,808.282 L428.349,808.282 L428.349,787.421 Z M466.294,787.421 L487.155,787.421 L487.155,808.282 L466.294,808.282 L466.294,787.421 Z M504.24,787.421 L525.101,787.421 L525.101,808.282 L504.24,808.282 L504.24,787.421 Z M428.349,748.365 L449.21,748.365 L449.21,769.226 L428.349,769.226 L428.349,748.365 Z M466.294,748.365 L487.155,748.365 L487.155,769.226 L466.294,769.226 L466.294,748.365 Z M504.24,748.365 L525.101,748.365 L525.101,769.226 L504.24,769.226 L504.24,748.365 Z M428.349,708.95 L449.21,708.95 L449.21,730.171 L428.349,730.171 L428.349,708.95 Z M466.294,708.95 L487.155,708.95 L487.155,730.171 L466.294,730.171 L466.294,708.95 Z M504.24,708.95 L525.101,708.95 L525.101,730.171 L504.24,730.171 L504.24,708.95 Z M428.349,669.894 L449.21,669.894 L449.21,690.755 L428.349,690.755 L428.349,669.894 Z M466.294,669.894 L487.155,669.894 L487.155,690.755 L466.294,690.755 L466.294,669.894 Z M504.24,669.894 L525.101,669.894 L525.101,690.755 L504.24,690.755 L504.24,669.894 Z M428.349,630.838 L449.21,630.838 L449.21,651.699 L428.349,651.699 L428.349,630.838 Z M466.294,630.838 L487.155,630.838 L487.155,651.699 L466.294,651.699 L466.294,630.838 Z M504.24,630.838 L525.101,630.838 L525.101,651.699 L504.24,651.699 L504.24,630.838 Z M428.349,591.782 L449.21,591.782 L449.21,612.643 L428.349,612.643 L428.349,591.782 Z M466.294,591.782 L487.155,591.782 L487.155,612.643 L466.294,612.643 L466.294,591.782 Z M504.24,591.782 L525.101,591.782 L525.101,612.643 L504.24,612.643 L504.24,591.782 Z M428.349,552.726 L449.21,552.726 L449.21,573.587 L428.349,573.587 L428.349,552.726 Z M466.294,552.726 L487.155,552.726 L487.155,573.587 L466.294,573.587 L466.294,552.726 Z M504.24,552.726 L525.101,552.726 L525.101,573.587 L504.24,573.587 L504.24,552.726 Z M428.349,513.67 L449.21,513.67 L449.21,534.531 L428.349,534.531 L428.349,513.67 Z M466.294,513.67 L487.155,513.67 L487.155,534.531 L466.294,534.531 L466.294,513.67 Z M504.24,513.67 L525.101,513.67 L525.101,534.531 L504.24,534.531 L504.24,513.67 Z M428.349,474.614 L449.21,474.614 L449.21,495.475 L428.349,495.475 L428.349,474.614 Z M466.294,474.614 L487.155,474.614 L487.155,495.475 L466.294,495.475 L466.294,474.614 Z M504.24,474.614 L525.101,474.614 L525.101,495.475 L504.24,495.475 L504.24,474.614 Z M418.115,861.49 L535.334,861.49 L535.334,452.987 L418.115,452.987 L418.115,861.49 Z M462.42,411.386 L462.42,411.386 C462.42,403.486 468.824,397.081 476.725,397.081 C484.625,397.081 491.03,403.486 491.03,411.386 C491.03,419.287 484.625,425.692 476.725,425.692 C468.824,425.692 462.42,419.287 462.42,411.386 L462.42,411.386 Z M476.725,367.296 L476.725,367.296 L419.025,436.718 L534.424,436.718 L476.725,367.296 L476.725,367.296 Z" id="Fill-26" fill="#517FEC" sketch:type="MSShapeGroup"></path>
            <path d="M491.03,411.386 C491.03,419.287 484.625,425.692 476.725,425.692 C468.824,425.692 462.42,419.287 462.42,411.386 C462.42,403.486 468.824,397.081 476.725,397.081 C484.625,397.081 491.03,403.486 491.03,411.386" id="Fill-27" fill="#3369E8" sketch:type="MSShapeGroup"></path>
            <path d="M476.725,397.081 C468.824,397.081 462.42,403.486 462.42,411.386 C462.42,419.287 468.824,425.692 476.725,425.692 C484.625,425.692 491.03,419.287 491.03,411.386 C491.03,403.486 484.625,397.081 476.725,397.081" id="Fill-28" fill="#2449A2" sketch:type="MSShapeGroup"></path>
            <path d="M428.349,474.614 L449.21,474.614 L449.21,495.475 L428.349,495.475 L428.349,474.614 Z" id="Fill-29" fill="#3369E8" sketch:type="MSShapeGroup"></path>
            <path d="M466.294,474.614 L487.155,474.614 L487.155,495.475 L466.294,495.475 L466.294,474.614 Z" id="Fill-30" fill="#3369E8" sketch:type="MSShapeGroup"></path>
            <path d="M504.24,474.614 L525.101,474.614 L525.101,495.475 L504.24,495.475 L504.24,474.614 Z" id="Fill-31" fill="#3369E8" sketch:type="MSShapeGroup"></path>
            <path d="M428.349,513.67 L449.21,513.67 L449.21,534.531 L428.349,534.531 L428.349,513.67 Z" id="Fill-32" fill="#3369E8" sketch:type="MSShapeGroup"></path>
            <path d="M466.294,513.67 L487.155,513.67 L487.155,534.531 L466.294,534.531 L466.294,513.67 Z" id="Fill-33" fill="#3369E8" sketch:type="MSShapeGroup"></path>
            <path d="M504.24,513.67 L525.101,513.67 L525.101,534.531 L504.24,534.531 L504.24,513.67 Z" id="Fill-34" fill="#3369E8" sketch:type="MSShapeGroup"></path>
            <path d="M428.349,552.726 L449.21,552.726 L449.21,573.587 L428.349,573.587 L428.349,552.726 Z" id="Fill-35" fill="#3369E8" sketch:type="MSShapeGroup"></path>
            <path d="M466.294,552.726 L487.155,552.726 L487.155,573.587 L466.294,573.587 L466.294,552.726 Z" id="Fill-36" fill="#3369E8" sketch:type="MSShapeGroup"></path>
            <path d="M504.24,552.726 L525.101,552.726 L525.101,573.587 L504.24,573.587 L504.24,552.726 Z" id="Fill-37" fill="#3369E8" sketch:type="MSShapeGroup"></path>
            <path d="M428.349,591.782 L449.21,591.782 L449.21,612.643 L428.349,612.643 L428.349,591.782 Z" id="Fill-38" fill="#3369E8" sketch:type="MSShapeGroup"></path>
            <path d="M466.294,591.782 L487.155,591.782 L487.155,612.643 L466.294,612.643 L466.294,591.782 Z" id="Fill-39" fill="#3369E8" sketch:type="MSShapeGroup"></path>
            <path d="M504.24,591.782 L525.101,591.782 L525.101,612.643 L504.24,612.643 L504.24,591.782 Z" id="Fill-40" fill="#3369E8" sketch:type="MSShapeGroup"></path>
            <path d="M428.349,630.838 L449.21,630.838 L449.21,651.699 L428.349,651.699 L428.349,630.838 Z" id="Fill-41" fill="#3369E8" sketch:type="MSShapeGroup"></path>
            <path d="M466.294,630.838 L487.155,630.838 L487.155,651.699 L466.294,651.699 L466.294,630.838 Z" id="Fill-42" fill="#3369E8" sketch:type="MSShapeGroup"></path>
            <path d="M504.24,630.838 L525.101,630.838 L525.101,651.699 L504.24,651.699 L504.24,630.838 Z" id="Fill-43" fill="#3369E8" sketch:type="MSShapeGroup"></path>
            <path d="M428.349,669.894 L449.21,669.894 L449.21,690.755 L428.349,690.755 L428.349,669.894 Z" id="Fill-44" fill="#3369E8" sketch:type="MSShapeGroup"></path>
            <path d="M466.294,669.894 L487.155,669.894 L487.155,690.755 L466.294,690.755 L466.294,669.894 Z" id="Fill-45" fill="#3369E8" sketch:type="MSShapeGroup"></path>
            <path d="M504.24,669.894 L525.101,669.894 L525.101,690.755 L504.24,690.755 L504.24,669.894 Z" id="Fill-46" fill="#3369E8" sketch:type="MSShapeGroup"></path>
            <path d="M428.349,708.95 L449.21,708.95 L449.21,729.811 L428.349,729.811 L428.349,708.95 Z" id="Fill-47" fill="#3369E8" sketch:type="MSShapeGroup"></path>
            <path d="M466.294,708.95 L487.155,708.95 L487.155,729.811 L466.294,729.811 L466.294,708.95 Z" id="Fill-48" fill="#3369E8" sketch:type="MSShapeGroup"></path>
            <path d="M504.24,708.95 L525.101,708.95 L525.101,729.811 L504.24,729.811 L504.24,708.95 Z" id="Fill-49" fill="#3369E8" sketch:type="MSShapeGroup"></path>
            <path d="M428.349,474.614 L449.21,474.614 L449.21,495.475 L428.349,495.475 L428.349,474.614 Z" id="Fill-50" fill="#2B59C5" sketch:type="MSShapeGroup"></path>
            <path d="M466.294,474.614 L487.155,474.614 L487.155,495.475 L466.294,495.475 L466.294,474.614 Z" id="Fill-51" fill="#2B59C5" sketch:type="MSShapeGroup"></path>
            <path d="M504.24,474.614 L525.101,474.614 L525.101,495.475 L504.24,495.475 L504.24,474.614 Z" id="Fill-52" fill="#2B59C5" sketch:type="MSShapeGroup"></path>
            <path d="M428.349,513.67 L449.21,513.67 L449.21,534.531 L428.349,534.531 L428.349,513.67 Z" id="Fill-53" fill="#2B59C5" sketch:type="MSShapeGroup"></path>
            <path d="M466.294,513.67 L487.155,513.67 L487.155,534.531 L466.294,534.531 L466.294,513.67 Z" id="Fill-54" fill="#2B59C5" sketch:type="MSShapeGroup"></path>
            <path d="M504.24,513.67 L525.101,513.67 L525.101,534.531 L504.24,534.531 L504.24,513.67 Z" id="Fill-55" fill="#2B59C5" sketch:type="MSShapeGroup"></path>
            <path d="M428.349,552.726 L449.21,552.726 L449.21,573.587 L428.349,573.587 L428.349,552.726 Z" id="Fill-56" fill="#2B59C5" sketch:type="MSShapeGroup"></path>
            <path d="M466.294,552.726 L487.155,552.726 L487.155,573.587 L466.294,573.587 L466.294,552.726 Z" id="Fill-57" fill="#2B59C5" sketch:type="MSShapeGroup"></path>
            <path d="M504.24,552.726 L525.101,552.726 L525.101,573.587 L504.24,573.587 L504.24,552.726 Z" id="Fill-58" fill="#2B59C5" sketch:type="MSShapeGroup"></path>
            <path d="M428.349,591.782 L449.21,591.782 L449.21,612.643 L428.349,612.643 L428.349,591.782 Z" id="Fill-59" fill="#2B59C5" sketch:type="MSShapeGroup"></path>
            <path d="M466.294,591.782 L487.155,591.782 L487.155,612.643 L466.294,612.643 L466.294,591.782 Z" id="Fill-60" fill="#2B59C5" sketch:type="MSShapeGroup"></path>
            <path d="M504.24,591.782 L525.101,591.782 L525.101,612.643 L504.24,612.643 L504.24,591.782 Z" id="Fill-61" fill="#2B59C5" sketch:type="MSShapeGroup"></path>
            <path d="M428.349,630.838 L449.21,630.838 L449.21,651.699 L428.349,651.699 L428.349,630.838 Z" id="Fill-62" fill="#2B59C5" sketch:type="MSShapeGroup"></path>
            <path d="M466.294,630.838 L487.155,630.838 L487.155,651.699 L466.294,651.699 L466.294,630.838 Z" id="Fill-63" fill="#2B59C5" sketch:type="MSShapeGroup"></path>
            <path d="M504.24,630.838 L525.101,630.838 L525.101,651.699 L504.24,651.699 L504.24,630.838 Z" id="Fill-64" fill="#2B59C5" sketch:type="MSShapeGroup"></path>
            <path d="M428.349,669.894 L449.21,669.894 L449.21,690.755 L428.349,690.755 L428.349,669.894 Z" id="Fill-65" fill="#2B59C5" sketch:type="MSShapeGroup"></path>
            <path d="M466.294,669.894 L487.155,669.894 L487.155,690.755 L466.294,690.755 L466.294,669.894 Z" id="Fill-66" fill="#2B59C5" sketch:type="MSShapeGroup"></path>
            <path d="M504.24,669.894 L525.101,669.894 L525.101,690.755 L504.24,690.755 L504.24,669.894 Z" id="Fill-67" fill="#2B59C5" sketch:type="MSShapeGroup"></path>
            <path d="M449.21,708.95 L428.349,708.95 L428.349,729.811 L428.349,709.309 L449.21,709.309 L449.21,708.95" id="Fill-68" fill="#2B59C5" sketch:type="MSShapeGroup"></path>
            <path d="M487.156,708.95 L466.294,708.95 L466.294,729.811 L466.294,709.309 L487.156,709.309 L487.156,708.95" id="Fill-69" fill="#2B59C5" sketch:type="MSShapeGroup"></path>
            <path d="M525.101,708.95 L504.24,708.95 L504.24,729.811 L504.24,709.309 L525.101,709.309 L525.101,708.95" id="Fill-70" fill="#2B59C5" sketch:type="MSShapeGroup"></path>
            <path d="M428.349,709.309 L449.21,709.309 L449.21,730.17 L428.349,730.17 L428.349,709.309 Z" id="Fill-71" fill="#3369E8" sketch:type="MSShapeGroup"></path>
            <path d="M466.294,709.309 L487.155,709.309 L487.155,730.17 L466.294,730.17 L466.294,709.309 Z" id="Fill-72" fill="#3369E8" sketch:type="MSShapeGroup"></path>
            <path d="M504.24,709.309 L525.101,709.309 L525.101,730.17 L504.24,730.17 L504.24,709.309 Z" id="Fill-73" fill="#3369E8" sketch:type="MSShapeGroup"></path>
            <path d="M428.349,748.365 L449.21,748.365 L449.21,769.226 L428.349,769.226 L428.349,748.365 Z" id="Fill-74" fill="#3369E8" sketch:type="MSShapeGroup"></path>
            <path d="M466.294,748.365 L487.155,748.365 L487.155,769.226 L466.294,769.226 L466.294,748.365 Z" id="Fill-75" fill="#3369E8" sketch:type="MSShapeGroup"></path>
            <path d="M504.24,748.365 L525.101,748.365 L525.101,769.226 L504.24,769.226 L504.24,748.365 Z" id="Fill-76" fill="#3369E8" sketch:type="MSShapeGroup"></path>
            <path d="M428.349,787.421 L449.21,787.421 L449.21,808.282 L428.349,808.282 L428.349,787.421 Z" id="Fill-77" fill="#3369E8" sketch:type="MSShapeGroup"></path>
            <path d="M466.294,787.421 L487.155,787.421 L487.155,808.282 L466.294,808.282 L466.294,787.421 Z" id="Fill-78" fill="#3369E8" sketch:type="MSShapeGroup"></path>
            <path d="M504.24,787.421 L525.101,787.421 L525.101,808.282 L504.24,808.282 L504.24,787.421 Z" id="Fill-79" fill="#3369E8" sketch:type="MSShapeGroup"></path>
            <path d="M428.349,730.17 L449.21,730.17 L449.21,709.309 L428.349,709.309 L428.349,730.17 Z" id="Fill-80" fill="#2B59C5" sketch:type="MSShapeGroup"></path>
            <path d="M466.294,730.17 L487.155,730.17 L487.155,709.309 L466.294,709.309 L466.294,730.17 Z" id="Fill-81" fill="#2B59C5" sketch:type="MSShapeGroup"></path>
            <path d="M504.24,730.17 L525.101,730.17 L525.101,709.309 L504.24,709.309 L504.24,730.17 Z" id="Fill-82" fill="#2B59C5" sketch:type="MSShapeGroup"></path>
            <path d="M428.349,748.365 L449.21,748.365 L449.21,769.226 L428.349,769.226 L428.349,748.365 Z" id="Fill-83" fill="#2B59C5" sketch:type="MSShapeGroup"></path>
            <path d="M466.294,748.365 L487.155,748.365 L487.155,769.226 L466.294,769.226 L466.294,748.365 Z" id="Fill-84" fill="#2B59C5" sketch:type="MSShapeGroup"></path>
            <path d="M504.24,748.365 L525.101,748.365 L525.101,769.226 L504.24,769.226 L504.24,748.365 Z" id="Fill-85" fill="#2B59C5" sketch:type="MSShapeGroup"></path>
            <path d="M428.349,787.421 L449.21,787.421 L449.21,808.282 L428.349,808.282 L428.349,787.421 Z" id="Fill-86" fill="#2B59C5" sketch:type="MSShapeGroup"></path>
            <path d="M466.294,787.421 L487.155,787.421 L487.155,808.282 L466.294,808.282 L466.294,787.421 Z" id="Fill-87" fill="#2B59C5" sketch:type="MSShapeGroup"></path>
            <path d="M504.24,787.421 L525.101,787.421 L525.101,808.282 L504.24,808.282 L504.24,787.421 Z" id="Fill-88" fill="#2B59C5" sketch:type="MSShapeGroup"></path>
            <path d="M372.746,436.718 L580.703,436.718 L580.703,452.987 L372.746,452.987 L372.746,436.718 Z" id="Fill-89" fill="#B2B2B2" sketch:type="MSShapeGroup"></path>
            <path d="M372.746,436.718 L580.703,436.718 L580.703,452.987 L372.746,452.987 L372.746,436.718 Z" id="Fill-90" fill="#3369E8" sketch:type="MSShapeGroup"></path>
            <path d="M372.746,452.987 L580.703,452.987 L580.703,436.718 L372.746,436.718 L372.746,452.987 Z" id="Fill-91" fill="#2449A2" sketch:type="MSShapeGroup"></path>
            <path d="M33.102,203.95 L310.196,203.95 L310.196,752.979 L33.102,752.979 L33.102,203.95 Z" id="Fill-92" fill="#169E58" sketch:type="MSShapeGroup"></path>
            <path d="M50.477,233.685 L59.102,233.685 L59.102,729.907 L50.477,729.907 L50.477,233.685 Z M73.477,233.685 L82.102,233.685 L82.102,729.907 L73.477,729.907 L73.477,233.685 Z M33.102,752.979 L95.544,752.979 L95.544,203.95 L33.102,203.95 L33.102,752.979 Z M262.477,233.685 L271.102,233.685 L271.102,729.907 L262.477,729.907 L262.477,233.685 Z M285.477,233.685 L294.102,233.685 L294.102,729.907 L285.477,729.907 L285.477,233.685 Z M247.753,752.979 L310.195,752.979 L310.195,203.95 L247.753,203.95 L247.753,752.979 Z" id="Fill-93" fill="#13864B" sketch:type="MSShapeGroup"></path>
            <path d="M95.545,155.838 L247.754,155.838 L247.754,752.979 L95.545,752.979 L95.545,155.838 Z" id="Fill-94" fill="#169E58" sketch:type="MSShapeGroup"></path>
            <path d="M109.837,189.33 L118.462,189.33 L118.462,728.797 L109.837,728.797 L109.837,189.33 Z" id="Fill-95" fill="#0D5F35" sketch:type="MSShapeGroup"></path>
            <path d="M132.837,189.33 L141.462,189.33 L141.462,728.797 L132.837,728.797 L132.837,189.33 Z" id="Fill-96" fill="#0D5F35" sketch:type="MSShapeGroup"></path>
            <path d="M155.836,189.33 L164.461,189.33 L164.461,728.797 L155.836,728.797 L155.836,189.33 Z" id="Fill-97" fill="#0D5F35" sketch:type="MSShapeGroup"></path>
            <path d="M178.837,189.33 L187.462,189.33 L187.462,728.797 L178.837,728.797 L178.837,189.33 Z" id="Fill-98" fill="#0D5F35" sketch:type="MSShapeGroup"></path>
            <path d="M201.837,189.33 L210.462,189.33 L210.462,728.797 L201.837,728.797 L201.837,189.33 Z" id="Fill-99" fill="#0D5F35" sketch:type="MSShapeGroup"></path>
            <path d="M224.837,189.33 L233.462,189.33 L233.462,728.797 L224.837,728.797 L224.837,189.33 Z" id="Fill-100" fill="#0D5F35" sketch:type="MSShapeGroup"></path>
            <path d="M262.477,233.685 L271.102,233.685 L271.102,729.907 L262.477,729.907 L262.477,233.685 Z" id="Fill-101" fill="#0B502D" sketch:type="MSShapeGroup"></path>
            <path d="M285.477,233.685 L294.102,233.685 L294.102,729.907 L285.477,729.907 L285.477,233.685 Z" id="Fill-102" fill="#0B502D" sketch:type="MSShapeGroup"></path>
            <path d="M50.477,233.685 L59.102,233.685 L59.102,729.907 L50.477,729.907 L50.477,233.685 Z" id="Fill-103" fill="#0B502D" sketch:type="MSShapeGroup"></path>
            <path d="M73.477,233.685 L82.102,233.685 L82.102,729.907 L73.477,729.907 L73.477,233.685 Z" id="Fill-104" fill="#0B502D" sketch:type="MSShapeGroup"></path>
            <path d="M0.739,752.979 L342.558,752.979 L342.558,835.112 L0.739,835.112 L0.739,752.979 Z" id="Fill-105" fill="#169E58" sketch:type="MSShapeGroup"></path>
            <path d="M10.834,772.323 L84.722,772.323 L84.722,825.112 L10.834,825.112 L10.834,772.323 Z" id="Fill-106" fill="#083F23" sketch:type="MSShapeGroup"></path>
            <path d="M93.415,772.323 L167.303,772.323 L167.303,825.112 L93.415,825.112 L93.415,772.323 Z" id="Fill-107" fill="#083F23" sketch:type="MSShapeGroup"></path>
            <path d="M175.996,772.323 L249.883,772.323 L249.883,825.112 L175.996,825.112 L175.996,772.323 Z" id="Fill-108" fill="#083F23" sketch:type="MSShapeGroup"></path>
            <path d="M258.576,772.323 L332.464,772.323 L332.464,825.112 L258.576,825.112 L258.576,772.323 Z" id="Fill-109" fill="#083F23" sketch:type="MSShapeGroup"></path>
            <path d="M255.166,594.02 L409.761,594.02 L409.761,877.509 L255.166,877.509 L255.166,594.02 Z" id="Fill-110" fill="#888888" sketch:type="MSShapeGroup"></path>
            <path d="M290.004,559.636 L374.924,559.636 L374.924,877.508 L290.004,877.508 L290.004,559.636 Z" id="Fill-111" fill="#B2B2B2" sketch:type="MSShapeGroup"></path>
            <path d="M409.761,574.355 L474.38,574.355 L474.38,877.509 L409.761,877.509 L409.761,574.355 Z" id="Fill-112" fill="#B2B2B2" sketch:type="MSShapeGroup"></path>
            <path d="M190.547,574.355 L255.166,574.355 L255.166,877.509 L190.547,877.509 L190.547,574.355 Z" id="Fill-113" fill="#B2B2B2" sketch:type="MSShapeGroup"></path>
            <path d="M222.857,511.962 L198.388,575.355 L247.326,575.355 L222.857,511.962" id="Fill-114" fill="#B2B2B2" sketch:type="MSShapeGroup"></path>
            <path d="M442.071,513.962 L417.602,575.355 L466.539,575.355 L442.071,513.962" id="Fill-115" fill="#B2B2B2" sketch:type="MSShapeGroup"></path>
            <path d="M332.464,452.462 L293.852,562.636 L371.076,562.636 L332.464,452.462" id="Fill-116" fill="#B2B2B2" sketch:type="MSShapeGroup"></path>
            <path d="M212.489,595.612 L233.224,595.612 L233.224,655.977 L212.489,655.977 L212.489,595.612 Z" id="Fill-117" fill="#666666" sketch:type="MSShapeGroup"></path>
            <path d="M233.224,595.612 C233.224,589.886 228.583,585.244 222.857,585.244 C217.131,585.244 212.489,589.886 212.489,595.612 C212.489,601.337 217.131,605.979 222.857,605.979 C228.583,605.979 233.224,601.337 233.224,595.612" id="Fill-118" fill="#666666" sketch:type="MSShapeGroup"></path>
            <path d="M431.703,595.612 L452.438,595.612 L452.438,655.977 L431.703,655.977 L431.703,595.612 Z" id="Fill-119" fill="#666666" sketch:type="MSShapeGroup"></path>
            <path d="M452.438,595.612 C452.438,589.886 447.797,585.244 442.071,585.244 C436.345,585.244 431.703,589.886 431.703,595.612 C431.703,601.337 436.345,605.979 442.071,605.979 C447.797,605.979 452.438,601.337 452.438,595.612" id="Fill-120" fill="#666666" sketch:type="MSShapeGroup"></path>
            <path d="M314.048,584.157 L350.88,584.157 L350.88,655.574 L314.048,655.574 L314.048,584.157 Z" id="Fill-121" fill="#666666" sketch:type="MSShapeGroup"></path>
            <path d="M350.88,584.157 C350.88,573.986 342.635,565.741 332.464,565.741 C322.293,565.741 314.048,573.986 314.048,584.157 C314.048,594.328 322.293,602.573 332.464,602.573 C342.635,602.573 350.88,594.328 350.88,584.157" id="Fill-122" fill="#666666" sketch:type="MSShapeGroup"></path>
            <path d="M212.489,705.377 L233.224,705.377 L233.224,765.742 L212.489,765.742 L212.489,705.377 Z" id="Fill-123" fill="#666666" sketch:type="MSShapeGroup"></path>
            <path d="M233.224,705.377 C233.224,699.652 228.583,695.01 222.857,695.01 C217.131,695.01 212.489,699.652 212.489,705.377 C212.489,711.103 217.131,715.745 222.857,715.745 C228.583,715.745 233.224,711.103 233.224,705.377" id="Fill-124" fill="#666666" sketch:type="MSShapeGroup"></path>
            <path d="M431.703,705.377 L452.438,705.377 L452.438,765.742 L431.703,765.742 L431.703,705.377 Z" id="Fill-125" fill="#666666" sketch:type="MSShapeGroup"></path>
            <path d="M452.438,705.377 C452.438,699.652 447.797,695.01 442.071,695.01 C436.345,695.01 431.703,699.652 431.703,705.377 C431.703,711.103 436.345,715.745 442.071,715.745 C447.797,715.745 452.438,711.103 452.438,705.377" id="Fill-126" fill="#666666" sketch:type="MSShapeGroup"></path>
            <path d="M314.048,695.326 L350.88,695.326 L350.88,766.743 L314.048,766.743 L314.048,695.326 Z" id="Fill-127" fill="#666666" sketch:type="MSShapeGroup"></path>
            <path d="M350.88,695.326 C350.88,685.155 342.635,676.91 332.464,676.91 C322.293,676.91 314.048,685.155 314.048,695.326 C314.048,705.497 322.293,713.742 332.464,713.742 C342.635,713.742 350.88,705.497 350.88,695.326" id="Fill-128" fill="#666666" sketch:type="MSShapeGroup"></path>
            <path d="M212.489,817.143 L233.224,817.143 L233.224,877.508 L212.489,877.508 L212.489,817.143 Z" id="Fill-129" fill="#666666" sketch:type="MSShapeGroup"></path>
            <path d="M233.224,817.143 C233.224,811.417 228.583,806.776 222.857,806.776 C217.131,806.776 212.489,811.417 212.489,817.143 C212.489,822.869 217.131,827.511 222.857,827.511 C228.583,827.511 233.224,822.869 233.224,817.143" id="Fill-130" fill="#666666" sketch:type="MSShapeGroup"></path>
            <path d="M431.703,817.143 L452.438,817.143 L452.438,877.508 L431.703,877.508 L431.703,817.143 Z" id="Fill-131" fill="#666666" sketch:type="MSShapeGroup"></path>
            <path d="M452.438,817.143 C452.438,811.417 447.797,806.776 442.071,806.776 C436.345,806.776 431.703,811.417 431.703,817.143 C431.703,822.869 436.345,827.511 442.071,827.511 C447.797,827.511 452.438,822.869 452.438,817.143" id="Fill-132" fill="#666666" sketch:type="MSShapeGroup"></path>
            <path d="M314.048,807.753 L350.88,807.753 L350.88,879.17 L314.048,879.17 L314.048,807.753 Z" id="Fill-133" fill="#666666" sketch:type="MSShapeGroup"></path>
            <path d="M350.88,807.753 C350.88,797.583 342.635,789.337 332.464,789.337 C322.293,789.337 314.048,797.583 314.048,807.753 C314.048,817.924 322.293,826.17 332.464,826.17 C342.635,826.17 350.88,817.924 350.88,807.753" id="Fill-134" fill="#666666" sketch:type="MSShapeGroup"></path>
            <path d="M280.172,703.957 C280.172,708.898 276.166,712.904 271.224,712.904 C266.283,712.904 262.277,708.898 262.277,703.957 C262.277,699.016 266.283,695.01 271.224,695.01 C276.166,695.01 280.172,699.016 280.172,703.957" id="Fill-135" fill="#666666" sketch:type="MSShapeGroup"></path>
            <path d="M280.172,827.511 C280.172,832.452 276.166,836.458 271.224,836.458 C266.283,836.458 262.277,832.452 262.277,827.511 C262.277,822.569 266.283,818.564 271.224,818.564 C276.166,818.564 280.172,822.569 280.172,827.511" id="Fill-136" fill="#666666" sketch:type="MSShapeGroup"></path>
            <path d="M267.224,608.91 L275.224,608.91 L275.224,676.91 L267.224,676.91 L267.224,608.91 Z" id="Fill-137" fill="#666666" sketch:type="MSShapeGroup"></path>
            <path d="M267.224,732.743 L275.224,732.743 L275.224,800.743 L267.224,800.743 L267.224,732.743 Z" id="Fill-138" fill="#666666" sketch:type="MSShapeGroup"></path>
            <path d="M401.172,703.957 C401.172,708.898 397.166,712.904 392.224,712.904 C387.283,712.904 383.277,708.898 383.277,703.957 C383.277,699.016 387.283,695.01 392.224,695.01 C397.166,695.01 401.172,699.016 401.172,703.957" id="Fill-139" fill="#666666" sketch:type="MSShapeGroup"></path>
            <path d="M401.172,827.511 C401.172,832.452 397.166,836.458 392.224,836.458 C387.283,836.458 383.277,832.452 383.277,827.511 C383.277,822.569 387.283,818.564 392.224,818.564 C397.166,818.564 401.172,822.569 401.172,827.511" id="Fill-140" fill="#666666" sketch:type="MSShapeGroup"></path>
            <path d="M388.224,608.91 L396.224,608.91 L396.224,676.91 L388.224,676.91 L388.224,608.91 Z" id="Fill-141" fill="#666666" sketch:type="MSShapeGroup"></path>
            <path d="M388.224,732.743 L396.224,732.743 L396.224,800.743 L388.224,800.743 L388.224,732.743 Z" id="Fill-142" fill="#666666" sketch:type="MSShapeGroup"></path>
            <path d="M332.464,424.227 L326.729,445.693 L332.464,452.462 L338.199,445.693 L332.464,424.227" id="Fill-143" fill="#EEB211" sketch:type="MSShapeGroup"></path>
        </g>
    </g>
</svg>